# Blender v2.79 (sub 6) OBJ File: 'player_controller_playground.blend'
# www.blender.org
mtllib player_controller_playground.mtl
o Cube
v 8.535590 -1.000000 -8.175490
v 8.535590 -1.000000 8.018183
v -8.631918 -1.000000 8.018183
v -8.631918 -1.000000 -8.175490
v 8.535591 -0.879059 -8.175489
v 8.535589 -0.879059 8.018184
v -8.631919 -0.879059 8.018183
v -8.631918 -0.879059 -8.175490
v 8.535590 -0.879059 -0.078653
v -0.048163 -0.879059 -8.175489
v -0.048164 -0.879059 8.018183
v -8.631918 -0.879059 -0.078653
v -0.048164 -0.879059 -0.078653
v 8.535591 1.988192 -8.175489
v 8.535590 1.988192 -0.078653
v -0.048163 1.988192 -8.175489
v -0.048164 1.988192 -0.078653
v -8.631918 -0.879059 -8.175490
v -8.631918 -0.879059 -0.078653
v -0.048163 1.988192 -8.175489
v -0.048164 1.988192 -0.078653
v -4.340041 -0.849900 -0.078653
v -4.340041 -0.849900 -8.175489
v -8.631919 3.757679 8.018183
v -0.048164 3.757679 8.018183
v -0.048164 -0.879059 7.642473
v 8.535589 -0.879059 7.642473
v -0.048164 3.719902 8.884167
v 8.535589 3.719902 8.884167
v -0.048164 -0.879059 0.374375
v 8.535589 -0.879059 0.374375
v -0.048164 -0.879059 0.793928
v 8.535589 -0.879059 0.793928
v -0.048164 -0.879059 1.239646
v 8.535589 -0.879059 1.239646
v -0.048164 -0.879059 1.691215
v 8.535589 -0.879059 1.691215
v -0.048164 -0.879059 2.174425
v 8.535589 -0.879059 2.174425
v -0.048164 1.737667 -0.078653
v 8.535590 1.737667 -0.078653
v -0.048164 1.737667 0.374375
v 8.535589 1.737667 0.374375
v -0.048164 1.479561 0.374375
v 8.535589 1.479561 0.374375
v -0.048164 1.479561 0.793928
v 8.535589 1.479561 0.793928
v -0.048164 1.237535 0.793928
v 8.535589 1.237535 0.793928
v -0.048164 1.237535 1.239646
v 8.535589 1.237535 1.239646
v -0.048164 0.955830 1.239646
v 8.535589 0.955830 1.239646
v -0.048164 0.955830 1.691215
v 8.535589 0.955830 1.691215
v -0.048164 0.700805 1.691215
v 8.535589 0.700805 1.691215
v -0.048164 0.700805 2.174425
v 8.535589 0.700805 2.174425
v -0.048164 -0.879059 2.599926
v 8.535589 -0.879059 2.599926
v -0.048164 -0.879059 2.996226
v 8.535589 -0.879059 2.996226
v -0.048164 -0.879059 3.392005
v 8.535589 -0.879059 3.392005
v -0.048164 0.427255 2.174425
v 8.535589 0.427255 2.174425
v -0.048164 0.427255 2.599926
v 8.535589 0.427255 2.599926
v -0.048164 0.152054 2.599926
v 8.535589 0.152054 2.599926
v -0.048164 0.152054 2.996226
v 8.535589 0.152054 2.996226
v -0.048164 -0.137021 2.996226
v 8.535589 -0.137021 2.996226
v -0.048164 -0.137021 3.392005
v 8.535589 -0.137021 3.392005
v -0.048164 -0.879059 3.770889
v 8.535589 -0.879059 3.770889
v -0.048164 -0.879059 4.164296
v 8.535589 -0.879059 4.164296
v -0.048164 -0.388651 3.392005
v 8.535589 -0.388651 3.392005
v -0.048164 -0.388651 3.770889
v 8.535589 -0.388651 3.770889
v -0.048164 -0.608860 3.770889
v 8.535589 -0.608860 3.770889
v -0.048164 -0.608860 4.164296
v 8.535589 -0.608860 4.164296
vt 0.112092 0.686061
vt 0.455415 0.297499
vt 0.498093 0.877096
vt 0.085578 0.293908
vt 0.251957 0.516083
vt 0.254944 0.516370
vt 0.241566 0.553572
vt 0.223874 0.569320
vt 0.206806 0.321291
vt 0.000163 0.000163
vt 0.044282 0.090413
vt 0.457852 0.293908
vt 0.450640 0.762766
vt 0.221995 0.453296
vt 0.130427 0.672490
vt 0.146289 0.635705
vt 0.545246 0.918009
vt 0.446632 0.677468
vt 0.423261 0.600974
vt 0.766548 0.675266
vt 0.589530 0.425047
vt 0.766549 0.425047
vt 0.415572 0.884233
vt 0.589203 0.999837
vt 0.766548 0.758848
vt 0.589529 0.675266
vt 0.286575 0.690249
vt 0.236186 0.513512
vt 0.801331 0.082798
vt 0.796991 0.333046
vt 0.798240 0.087552
vt 0.589529 0.360114
vt 0.593760 0.109605
vt 0.592570 0.355587
vt 0.691494 0.309886
vt 0.683679 0.134726
vt 0.785027 0.424721
vt 0.801213 0.337651
vt 0.775068 0.000163
vt 0.766875 0.623685
vt 0.954539 0.758848
vt 0.766875 0.758848
vt 0.589529 0.898035
vt 0.777194 0.759174
vt 0.777194 0.898035
vt 0.398707 0.569364
vt 0.254804 0.516088
vt 0.260806 0.511181
vt 0.252518 0.515632
vt 0.320169 0.533327
vt 0.258011 0.519901
vt 0.255179 0.515959
vt 0.304423 0.534292
vt 0.297738 0.530865
vt 0.277359 0.533531
vt 0.253619 0.517088
vt 0.256011 0.507645
vt 0.386183 0.579695
vt 0.379632 0.563285
vt 0.254867 0.525531
vt 0.353418 0.553522
vt 0.361961 0.546147
vt 0.346679 0.543196
vt 0.259038 0.522507
vt 0.259158 0.512864
vt 0.326751 0.539793
vt 0.333185 0.534671
vt 0.257299 0.514162
vt 0.309784 0.530665
vt 0.256453 0.518373
vt 0.254960 0.515022
vt 0.284297 0.535081
vt 0.289381 0.532379
vt 0.270853 0.538085
vt 0.235038 0.508785
vt 0.241834 0.509986
vt 0.244496 0.513337
vt 0.229025 0.502357
vt 0.224891 0.502092
vt 0.249925 0.513734
vt 0.265967 0.540930
vt 0.259047 0.541571
vt 0.247456 0.514176
vt 0.248775 0.551909
vt 0.253871 0.548605
vt 0.238654 0.509338
vt 0.232620 0.504119
vt 0.231934 0.567623
vt 0.237624 0.563157
vt 0.214331 0.587444
vt 0.205200 0.589037
vt 0.200679 0.480939
vt 0.211320 0.486727
vt 0.213729 0.493063
vt 0.222740 0.496199
vt 0.220933 0.580865
vt 0.218649 0.493167
vt 0.193504 0.611607
vt 0.202076 0.601000
vt 0.183513 0.613710
vt 0.206424 0.481672
vt 0.589529 0.758847
vt 0.589529 0.104994
vt 0.954539 0.623685
vt 0.589529 0.759174
vn 0.0000 -1.0000 0.0000
vn 0.0000 1.0000 0.0000
vn 1.0000 0.0000 0.0000
vn 0.0000 0.0000 1.0000
vn -1.0000 0.0000 0.0000
vn 0.0000 0.0000 -1.0000
vn -0.5516 0.8341 -0.0000
vn 0.0000 0.2607 -0.9654
vn 1.0000 0.0003 0.0000
vn 1.0000 0.0001 0.0000
vn 1.0000 -0.0001 0.0000
vn -0.0068 1.0000 0.0000
usemtl Material.003
s off
f 2/1/1 4/2/1 1/3/1
f 12/4/2 38/5/2 36/6/2
f 63/7/3 65/8/3 2/1/3
f 11/9/4 7/10/4 3/11/4
f 12/4/5 8/12/5 4/2/5
f 4/2/6 8/12/6 10/13/6
f 26/14/2 6/15/2 27/16/2
f 5/17/3 15/18/3 9/19/3
f 10/20/1 12/21/1 8/22/1
f 16/23/2 15/18/2 14/24/2
f 16/25/3 13/26/3 10/20/3
f 10/13/6 14/24/6 5/17/6
f 9/19/4 17/27/4 13/28/4
f 16/29/4 21/30/4 20/31/4
f 12/32/4 18/33/4 19/34/4
f 22/35/7 20/31/7 23/36/7
f 13/37/4 17/38/4 22/35/4
f 10/39/6 23/36/6 16/29/6
f 24/40/6 11/41/6 7/42/6
f 26/43/8 29/44/8 27/45/8
f 13/28/6 41/46/6 9/19/6
f 32/47/5 44/48/5 30/49/5
f 35/50/4 50/51/4 34/52/4
f 35/50/3 55/53/3 37/54/3
f 39/55/4 58/56/4 38/5/4
f 40/57/2 43/58/2 41/46/2
f 9/19/3 43/58/3 31/59/3
f 31/59/4 42/60/4 30/49/4
f 30/49/5 40/57/5 13/28/5
f 44/48/2 47/61/2 45/62/2
f 31/59/3 47/61/3 33/63/3
f 30/49/6 45/62/6 31/59/6
f 33/63/4 46/64/4 32/47/4
f 48/65/2 51/66/2 49/67/2
f 34/52/5 48/65/5 32/47/5
f 33/63/3 51/66/3 35/50/3
f 32/47/6 49/67/6 33/63/6
f 52/68/2 55/53/2 53/69/2
f 34/52/6 53/69/6 35/50/6
f 37/54/4 54/70/4 36/6/4
f 36/6/5 52/68/5 34/52/5
f 56/71/2 59/72/2 57/73/2
f 38/5/5 56/71/5 36/6/5
f 37/54/3 59/72/3 39/55/3
f 36/6/6 57/73/6 37/54/6
f 38/5/6 67/74/6 39/55/6
f 62/75/5 70/76/5 60/77/5
f 65/8/4 76/78/4 64/79/4
f 66/80/2 69/81/2 67/74/2
f 39/55/3 69/81/3 61/82/3
f 61/82/4 68/83/4 60/77/4
f 60/77/5 66/80/5 38/5/5
f 70/76/2 73/84/2 71/85/2
f 61/82/3 73/84/3 63/7/3
f 60/77/6 71/85/6 61/82/6
f 63/7/4 72/86/4 62/75/4
f 74/87/2 77/88/2 75/89/2
f 64/79/5 74/87/5 62/75/5
f 63/7/3 77/88/3 65/8/3
f 62/75/6 75/89/6 63/7/6
f 65/8/3 85/90/3 79/91/3
f 80/92/5 86/93/5 78/94/5
f 82/95/2 85/90/2 83/96/2
f 64/79/6 83/96/6 65/8/6
f 79/91/4 84/97/4 78/94/4
f 78/94/5 82/95/5 64/79/5
f 86/93/2 89/98/2 87/99/2
f 79/91/3 89/98/3 81/100/3
f 78/94/6 87/99/6 79/91/6
f 81/100/4 88/101/4 80/92/4
f 2/1/1 3/11/1 4/2/1
f 30/49/2 13/28/2 12/4/2
f 12/4/2 7/10/2 80/92/2
f 7/10/2 11/9/2 26/14/2
f 12/4/2 80/92/2 78/94/2
f 26/14/2 80/92/2 7/10/2
f 78/94/2 64/79/2 12/4/2
f 64/79/2 62/75/2 12/4/2
f 32/47/2 30/49/2 12/4/2
f 34/52/2 32/47/2 12/4/2
f 62/75/2 60/77/2 12/4/2
f 60/77/2 38/5/2 12/4/2
f 36/6/2 34/52/2 12/4/2
f 2/1/3 1/3/3 9/19/3
f 1/3/3 5/17/3 9/19/3
f 9/19/9 31/59/9 2/1/9
f 31/59/3 33/63/3 2/1/3
f 27/16/3 6/15/3 2/1/3
f 65/8/3 79/91/3 2/1/3
f 79/91/3 81/100/3 2/1/3
f 81/100/3 27/16/3 2/1/3
f 35/50/3 37/54/3 2/1/3
f 37/54/10 39/55/10 2/1/10
f 2/1/3 33/63/3 35/50/3
f 39/55/11 61/82/11 2/1/11
f 61/82/3 63/7/3 2/1/3
f 3/11/4 2/1/4 11/9/4
f 2/1/4 6/15/4 11/9/4
f 4/2/5 3/11/5 12/4/5
f 3/11/5 7/10/5 12/4/5
f 10/13/6 5/17/6 1/3/6
f 1/3/6 4/2/6 10/13/6
f 27/16/2 81/100/2 80/92/2
f 26/14/2 11/9/2 6/15/2
f 27/16/2 80/92/2 26/14/2
f 5/17/3 14/24/3 15/18/3
f 10/20/1 13/26/1 12/21/1
f 16/23/2 17/27/2 15/18/2
f 16/25/3 17/102/3 13/26/3
f 10/13/6 16/23/6 14/24/6
f 9/19/4 15/18/4 17/27/4
f 16/29/4 17/38/4 21/30/4
f 12/32/4 8/103/4 18/33/4
f 18/33/12 19/34/12 23/36/12
f 19/34/12 22/35/12 23/36/12
f 22/35/7 21/30/7 20/31/7
f 19/34/4 12/32/4 13/37/4
f 17/38/4 21/30/4 22/35/4
f 22/35/4 19/34/4 13/37/4
f 10/39/4 8/103/4 18/33/4
f 23/36/4 20/31/4 16/29/4
f 10/39/6 18/33/6 23/36/6
f 24/40/6 25/104/6 11/41/6
f 26/43/8 28/105/8 29/44/8
f 13/28/6 40/57/6 41/46/6
f 32/47/5 46/64/5 44/48/5
f 35/50/4 51/66/4 50/51/4
f 35/50/3 53/69/3 55/53/3
f 39/55/4 59/72/4 58/56/4
f 40/57/2 42/60/2 43/58/2
f 9/19/3 41/46/3 43/58/3
f 31/59/4 43/58/4 42/60/4
f 30/49/5 42/60/5 40/57/5
f 44/48/2 46/64/2 47/61/2
f 31/59/3 45/62/3 47/61/3
f 30/49/6 44/48/6 45/62/6
f 33/63/4 47/61/4 46/64/4
f 48/65/2 50/51/2 51/66/2
f 34/52/5 50/51/5 48/65/5
f 33/63/3 49/67/3 51/66/3
f 32/47/6 48/65/6 49/67/6
f 52/68/2 54/70/2 55/53/2
f 34/52/6 52/68/6 53/69/6
f 37/54/4 55/53/4 54/70/4
f 36/6/5 54/70/5 52/68/5
f 56/71/2 58/56/2 59/72/2
f 38/5/5 58/56/5 56/71/5
f 37/54/3 57/73/3 59/72/3
f 36/6/6 56/71/6 57/73/6
f 38/5/6 66/80/6 67/74/6
f 62/75/5 72/86/5 70/76/5
f 65/8/4 77/88/4 76/78/4
f 66/80/2 68/83/2 69/81/2
f 39/55/3 67/74/3 69/81/3
f 61/82/4 69/81/4 68/83/4
f 60/77/5 68/83/5 66/80/5
f 70/76/2 72/86/2 73/84/2
f 61/82/3 71/85/3 73/84/3
f 60/77/6 70/76/6 71/85/6
f 63/7/4 73/84/4 72/86/4
f 74/87/2 76/78/2 77/88/2
f 64/79/5 76/78/5 74/87/5
f 63/7/3 75/89/3 77/88/3
f 62/75/6 74/87/6 75/89/6
f 65/8/3 83/96/3 85/90/3
f 80/92/5 88/101/5 86/93/5
f 82/95/2 84/97/2 85/90/2
f 64/79/6 82/95/6 83/96/6
f 79/91/4 85/90/4 84/97/4
f 78/94/5 84/97/5 82/95/5
f 86/93/2 88/101/2 89/98/2
f 79/91/3 87/99/3 89/98/3
f 78/94/6 86/93/6 87/99/6
f 81/100/4 89/98/4 88/101/4
